HIERARCHY
ROOT Hips
{
	OFFSET 0.000000 0.000000 0.000000
	CHANNELS 6 Xposition Yposition Zposition Xrotation Yrotation Zrotation
	JOINT LeftUpLeg_virtual
	{
		OFFSET 0.000000 0.000000 0.000000
		CHANNELS 3 Xrotation Yrotation Zrotation
		JOINT LeftUpLeg
		{
			OFFSET 13.026900 -6.336304 -1.092800
			CHANNELS 3 Xrotation Yrotation Zrotation
			JOINT LeftLeg
			{
				OFFSET 0.524474 -46.096886 9.782700
				CHANNELS 3 Xrotation Yrotation Zrotation
				JOINT LeftFoot
				{
					OFFSET -0.524474 -53.427422 -12.948200
					CHANNELS 3 Xrotation Yrotation Zrotation
					JOINT LeftToeBase
					{
						OFFSET 0.192200 -14.009700 16.364100
						CHANNELS 3 Xrotation Yrotation Zrotation
						JOINT LeftToe_End
						{
							OFFSET -1.784700 -0.561700 9.474800
							CHANNELS 3 Xrotation Yrotation Zrotation
							End Site
							{
								OFFSET 0 0 0
							}
						}
					}
				}
			}
		}
	}
	JOINT RightUpLeg_virtual
	{
		OFFSET 0.000000 0.000000 0.000000
		CHANNELS 3 Xrotation Yrotation Zrotation
		JOINT RightUpLeg
		{
			OFFSET -12.883000 -6.336304 -1.092800
			CHANNELS 3 Xrotation Yrotation Zrotation
			JOINT RightLeg
			{
				OFFSET -0.524587 -46.096825 9.782800
				CHANNELS 3 Xrotation Yrotation Zrotation
				JOINT RightFoot
				{
					OFFSET 0.524587 -53.427383 -12.948300
					CHANNELS 3 Xrotation Yrotation Zrotation
					JOINT RightToeBase
					{
						OFFSET -0.192200 -14.009700 16.364100
						CHANNELS 3 Xrotation Yrotation Zrotation
						JOINT RightToe_End
						{
							OFFSET 1.784700 -0.561700 9.474800
							CHANNELS 3 Xrotation Yrotation Zrotation
							End Site
							{
								OFFSET 0 0 0
							}
						}
					}
				}
			}
		}
	}
	JOINT Spine_virtual
	{
		OFFSET 0.000000 0.000000 0.000000
		CHANNELS 3 Xrotation Yrotation Zrotation
		JOINT Spine
		{
			OFFSET 0.072000 7.257294 -0.789700
			CHANNELS 3 Xrotation Yrotation Zrotation
			JOINT Spine1
			{
				OFFSET 0.000000 12.508769 -0.658067
				CHANNELS 3 Xrotation Yrotation Zrotation
				JOINT Spine1_split
				{
					OFFSET 0.000000 12.508769 -0.658067
					CHANNELS 3 Xrotation Yrotation Zrotation
					JOINT Spine2
					{
						OFFSET 0.000000 12.508769 -0.658067
						CHANNELS 3 Xrotation Yrotation Zrotation
						JOINT Neck_virtual
						{
							OFFSET 0.000000 0.000000 0.000000
							CHANNELS 3 Xrotation Yrotation Zrotation
							JOINT Neck
							{
								OFFSET 0.000000 14.033295 7.520400
								CHANNELS 3 Xrotation Yrotation Zrotation
								JOINT Head
								{
									OFFSET 0.000000 8.198502 5.703100
									CHANNELS 3 Xrotation Yrotation Zrotation
									JOINT HeadTop_End
									{
										OFFSET 0.000000 17.760803 13.332701
										CHANNELS 3 Xrotation Yrotation Zrotation
										End Site
										{
											OFFSET 0 0 0
										}
									}
								}
							}
						}
						JOINT LeftShoulder_virtual
						{
							OFFSET 0.000000 0.000000 0.000000
							CHANNELS 3 Xrotation Yrotation Zrotation
							JOINT LeftShoulder
							{
								OFFSET 6.292450 5.785301 -0.669000
								CHANNELS 3 Xrotation Yrotation Zrotation
								JOINT LeftShoulder_split
								{
									OFFSET 6.292450 5.785301 -0.669000
									CHANNELS 3 Xrotation Yrotation Zrotation
									JOINT LeftArm
									{
										OFFSET 13.907140 -6.093903 1.965100
										CHANNELS 3 Xrotation Yrotation Zrotation
										JOINT LeftForeArm
										{
											OFFSET 34.140198 0.000000 0.000000
											CHANNELS 3 Xrotation Yrotation Zrotation
											JOINT LeftHand
											{
												OFFSET 40.960209 0.000000 0.000000
												CHANNELS 3 Xrotation Yrotation Zrotation
												End Site
												{
													OFFSET 0 0 0
												}
											}
										}
									}
								}
							}
						}
						JOINT RightShoulder_virtual
						{
							OFFSET 0.000000 0.000000 0.000000
							CHANNELS 3 Xrotation Yrotation Zrotation
							JOINT RightShoulder
							{
								OFFSET -6.292450 5.785301 -0.669000
								CHANNELS 3 Xrotation Yrotation Zrotation
								JOINT RightShoulder_split
								{
									OFFSET -6.292450 5.785301 -0.669000
									CHANNELS 3 Xrotation Yrotation Zrotation
									JOINT RightArm
									{
										OFFSET -13.907140 -6.093903 1.965100
										CHANNELS 3 Xrotation Yrotation Zrotation
										JOINT RightForeArm
										{
											OFFSET -34.140198 0.000000 0.000000
											CHANNELS 3 Xrotation Yrotation Zrotation
											JOINT RightHand
											{
												OFFSET -40.960209 0.000000 0.000000
												CHANNELS 3 Xrotation Yrotation Zrotation
												End Site
												{
													OFFSET 0 0 0
												}
											}
										}
									}
								}
							}
						}
					}
				}
			}
		}
	}
}
MOTION
Frames: 9
Frame Time: 0.03333333
-0.316144 116.913864 -0.928497 0.000000 0.000000 0.000000 -5.378250 -5.670073 3.428030 -13.486486 11.102758 6.992971 14.696661 7.316728 1.004195 4.121162 1.051530 -5.713581 -0.544535 0.079373 -0.973051 0.000000 0.000000 0.000000 -4.975768 -4.446538 3.615323 3.868495 -14.747949 -5.972182 17.102934 -8.936870 -4.399047 -13.311724 -5.981475 8.043098 -5.224227 -0.189558 -0.456713 0.000000 0.000000 0.000000 -5.810771 -6.093471 3.262854 5.156488 1.562039 -2.155112 0.888910 0.351777 -0.360786 0.812785 0.376862 -0.056730 0.000000 0.000000 0.000000 1.103111 0.758389 -0.637178 1.523426 5.684244 0.290311 4.353197 -10.708682 3.596715 0.000000 0.000000 0.000000 0.935365 0.738784 -0.847273 -0.138287 -15.771732 -17.982565 -1.333764 -1.417359 -2.938873 13.877711 -1.949177 -32.875090 110.710625 -89.366345 110.276444 0.000000 0.000000 0.000000 0.806837 0.630077 -0.729622 0.438817 15.475238 12.510933 1.901740 2.838226 0.588539 7.579119 21.163572 38.360808 -173.835336 78.875585 173.316624 0.000000 0.000000 0.000000 
0.175836 116.637238 -1.050797 0.000000 0.000000 0.000000 -5.334296 -5.987913 3.478940 -13.492679 10.578704 6.780483 15.109719 7.154383 1.110989 3.788951 1.227842 -5.885928 -0.634517 0.057001 -0.931156 0.000000 0.000000 0.000000 -5.130518 -4.521837 3.649828 3.718147 -15.153707 -6.193388 17.227868 -8.944225 -4.407234 -13.348392 -5.996953 7.848112 -4.791416 -0.246289 -0.448843 0.000000 0.000000 0.000000 -5.906692 -6.187749 3.208629 5.273134 1.525579 -2.121241 0.933805 0.316021 -0.323822 0.777951 0.415300 -0.043538 0.000000 0.000000 0.000000 1.063086 0.713134 -0.605627 1.469869 5.645309 0.220443 4.351486 -10.603804 3.541112 0.000000 0.000000 0.000000 0.932622 0.700839 -0.825939 -0.147589 -15.791609 -17.975268 -1.161611 -1.464526 -2.901641 13.987794 -1.749915 -33.021485 114.500028 -89.260867 114.048552 0.000000 0.000000 0.000000 0.824628 0.613988 -0.709862 0.436439 15.653942 12.634294 1.932044 2.927891 0.792368 7.693791 21.353553 38.500123 -173.794587 79.141716 173.278197 0.000000 0.000000 0.000000 
0.775459 115.988831 -1.006077 0.000000 0.000000 0.000000 -5.325528 -6.460504 3.604966 -13.877638 10.228107 6.513493 16.331378 7.015403 1.197558 3.031721 1.757522 -6.042873 -0.705280 0.059212 -0.929780 0.000000 0.000000 0.000000 -5.253041 -4.626667 3.752137 3.249741 -15.438408 -6.637775 17.926709 -8.850339 -4.370555 -13.814913 -6.100720 7.657524 -4.569222 -0.274011 -0.456129 0.000000 0.000000 0.000000 -6.022222 -6.366318 3.227866 5.408023 1.393225 -2.104941 0.992257 0.206877 -0.251177 0.742670 0.420772 -0.035818 0.000000 0.000000 0.000000 1.041827 0.597792 -0.534387 1.471949 5.600653 0.075176 4.309037 -10.525506 3.241156 0.000000 0.000000 0.000000 0.955527 0.588156 -0.758125 -0.163376 -15.814123 -18.011060 -1.021358 -1.470024 -2.794578 14.327942 -1.335261 -33.190075 130.549367 -88.994783 130.083261 0.000000 0.000000 0.000000 0.844846 0.519817 -0.639776 0.449375 15.793238 12.720175 1.923029 2.983411 0.850960 7.727963 21.890533 38.747759 -173.771678 79.582455 173.298783 0.000000 0.000000 0.000000 
1.412354 115.109787 -0.903053 0.000000 0.000000 0.000000 -5.351144 -6.994482 3.800409 -14.595177 10.096194 6.178700 18.000822 6.894448 1.249497 1.956347 2.539506 -6.211378 -0.700522 0.083686 -0.960070 0.000000 0.000000 0.000000 -5.314167 -4.875178 3.918748 2.455631 -15.542065 -7.273959 18.996552 -8.597421 -4.296076 -14.499708 -6.212939 7.564527 -4.629833 -0.274899 -0.477144 0.000000 0.000000 0.000000 -6.080499 -6.640213 3.315603 5.511040 1.195371 -2.116300 1.047664 0.043113 -0.156962 0.716730 0.452507 -0.037626 0.000000 0.000000 0.000000 1.031340 0.430082 -0.442461 1.523434 5.553773 -0.130093 4.173009 -10.461986 2.710284 0.000000 0.000000 0.000000 0.997070 0.414952 -0.655446 -0.178588 -15.846327 -18.071176 -0.952993 -1.478946 -2.693784 14.846839 -0.748612 -33.379975 145.054735 -88.498064 144.579587 0.000000 0.000000 0.000000 0.858008 0.361051 -0.532445 0.490919 15.877150 12.754716 1.869241 2.935203 0.778387 7.610538 22.621523 39.131878 -173.728443 80.103434 173.329656 0.000000 0.000000 0.000000 
2.064600 114.134972 -0.878754 0.000000 0.000000 0.000000 -5.403749 -7.602059 4.012158 -15.549795 10.143957 5.798144 19.797570 6.739499 1.265754 0.802414 3.456633 -6.470857 -0.646247 0.120728 -0.990755 0.000000 0.000000 0.000000 -5.305199 -5.369920 4.126122 1.358547 -15.438266 -8.032733 20.233505 -8.158665 -4.195504 -15.181880 -6.285952 7.633840 -4.836579 -0.254303 -0.490827 0.000000 0.000000 0.000000 -6.035918 -7.041147 3.457160 5.548026 0.957815 -2.159725 1.089646 -0.159157 -0.056318 0.751343 0.489196 -0.029214 0.000000 0.000000 0.000000 1.024864 0.226653 -0.346501 1.600587 5.493732 -0.365000 3.912895 -10.429061 1.998708 0.000000 0.000000 0.000000 1.046639 0.200050 -0.538187 -0.189596 -15.891789 -18.142629 -0.950557 -1.526928 -2.635567 15.500993 -0.013497 -33.595037 154.089327 -87.804199 153.605231 0.000000 0.000000 0.000000 0.867041 0.159448 -0.407165 0.565141 15.904903 12.742662 1.797186 2.840842 0.659983 7.333896 23.404955 39.687169 -173.626168 80.661583 173.324643 0.000000 0.000000 0.000000 
2.703080 113.212265 -1.032753 0.000000 0.000000 0.000000 -5.433548 -8.227316 4.202451 -16.618701 10.335178 5.395786 21.497976 6.524318 1.251640 -0.222024 4.396797 -6.811602 -0.589690 0.158213 -0.988229 0.000000 0.000000 0.000000 -5.214069 -6.125938 4.330704 -0.029418 -15.176346 -8.839663 21.538453 -7.525911 -4.083844 -15.709701 -6.307573 7.872443 -5.030079 -0.221476 -0.482669 0.000000 0.000000 0.000000 -5.874437 -7.570040 3.613412 5.500827 0.700999 -2.230831 1.114455 -0.388104 0.040418 0.734794 0.516267 0.026201 0.000000 0.000000 0.000000 1.017095 0.005542 -0.257189 1.662020 5.403017 -0.599155 3.534060 -10.449840 1.168237 0.000000 0.000000 0.000000 1.092935 -0.040048 -0.421444 -0.198219 -15.943922 -18.214125 -0.997412 -1.605639 -2.612292 16.216858 0.817866 -33.826758 159.319053 -87.013181 158.821583 0.000000 0.000000 0.000000 0.864558 -0.065403 -0.280574 0.661404 15.901128 12.688138 1.753962 2.729972 0.525999 6.910155 24.140214 40.408823 -173.424637 81.248010 173.232626 0.000000 0.000000 0.000000 
3.331162 112.414505 -1.279240 0.000000 0.000000 0.000000 -5.419951 -8.818615 4.339109 -17.675814 10.606843 5.028498 22.986944 6.284799 1.224027 -0.999271 5.334486 -7.153191 -0.568359 0.188891 -0.950702 0.000000 0.000000 0.000000 -5.061535 -7.129625 4.494398 -1.648977 -14.864092 -9.647765 22.895829 -6.723892 -3.977500 -16.026878 -6.311534 8.201509 -5.074477 -0.183154 -0.444966 0.000000 0.000000 0.000000 -5.646724 -8.264768 3.748749 5.395015 0.439248 -2.317491 1.124972 -0.637734 0.130942 0.674824 0.522775 0.084235 0.000000 0.000000 0.000000 1.009526 -0.226506 -0.178287 1.687837 5.266356 -0.809084 3.072532 -10.557935 0.291427 0.000000 0.000000 0.000000 1.134073 -0.294539 -0.314325 -0.209309 -16.006290 -18.273698 -1.062616 -1.697866 -2.596074 16.921981 1.717381 -34.061798 162.607816 -86.183505 162.092355 0.000000 0.000000 0.000000 0.852131 -0.307012 -0.160627 0.764243 15.894805 12.608764 1.738741 2.603262 0.404260 6.381395 24.782979 41.261200 -173.084138 81.880567 173.004320 0.000000 0.000000 0.000000 
3.907771 111.754211 -1.597919 0.000000 0.000000 0.000000 -5.365532 -9.484051 4.401055 -18.626272 10.911687 4.773227 24.232630 6.089714 1.199113 -1.494238 6.279077 -7.402990 -0.595776 0.205025 -0.891169 0.000000 0.000000 0.000000 -4.876476 -8.171604 4.607958 -3.421125 -14.641666 -10.395808 24.251907 -5.814343 -3.897484 -16.114371 -6.372045 8.543983 -4.934633 -0.145414 -0.386369 0.000000 0.000000 0.000000 -5.441473 -9.118451 3.838363 5.259086 0.183705 -2.418356 1.121406 -0.903854 0.211375 0.650471 0.510006 0.102473 0.000000 0.000000 0.000000 0.999857 -0.466121 -0.112274 1.681018 5.087209 -0.978910 2.571061 -10.789571 -0.564016 0.000000 0.000000 0.000000 1.173984 -0.554107 -0.218663 -0.216759 -16.079983 -18.307953 -1.120365 -1.743300 -2.590131 17.553024 2.648384 -34.269665 164.872871 -85.362529 164.335827 0.000000 0.000000 0.000000 0.839747 -0.555204 -0.051922 0.854644 15.900154 12.522644 1.723674 2.482520 0.327319 5.816096 25.371578 42.152851 -172.645995 82.552289 172.667647 0.000000 0.000000 0.000000 
4.427894 111.234528 -2.013470 0.000000 0.000000 0.000000 -5.281864 -10.238019 4.412240 -19.409757 11.191165 4.646839 25.210174 5.994230 1.191425 -1.787502 7.204406 -7.509613 -0.653625 0.205788 -0.822020 0.000000 0.000000 0.000000 -4.703105 -9.121916 4.655059 -5.278224 -14.655221 -11.061542 25.605529 -4.842532 -3.863111 -15.966050 -6.595821 8.874526 -4.658525 -0.113934 -0.330550 0.000000 0.000000 0.000000 -5.256329 -10.089013 3.870720 5.118450 -0.063413 -2.529120 1.111127 -1.177062 0.278327 0.653513 0.470222 0.143642 0.000000 0.000000 0.000000 0.990912 -0.710657 -0.055630 1.665506 4.896847 -1.102315 2.077853 -11.157932 -1.356175 0.000000 0.000000 0.000000 1.222127 -0.815008 -0.132962 -0.214244 -16.159292 -18.317790 -1.179764 -1.739380 -2.598308 18.097057 3.563558 -34.428999 166.584776 -84.591005 166.028266 0.000000 0.000000 0.000000 0.833877 -0.805096 0.046389 0.923535 15.920584 12.451045 1.694399 2.383695 0.283902 5.266379 25.939563 42.989962 -172.159945 83.212277 172.267698 0.000000 0.000000 0.000000 
